<?xml version="1.0" encoding="UTF-8" standalone="no"?>
<!-- Created with Inkscape (http://www.inkscape.org/) -->

<svg
   width="500mm"
   height="500mm"
   viewBox="0 0 500 500"
   version="1.1"
   id="svg1"
   inkscape:version="1.3.2 (091e20e, 2023-11-25, custom)"
   sodipodi:docname="matcha.svg"
   inkscape:export-filename="matcha.png"
   inkscape:export-xdpi="26.01"
   inkscape:export-ydpi="26.01"
   xmlns:inkscape="http://www.inkscape.org/namespaces/inkscape"
   xmlns:sodipodi="http://sodipodi.sourceforge.net/DTD/sodipodi-0.dtd"
   xmlns:xlink="http://www.w3.org/1999/xlink"
   xmlns="http://www.w3.org/2000/svg"
   xmlns:svg="http://www.w3.org/2000/svg"
   xmlns:rdf="http://www.w3.org/1999/02/22-rdf-syntax-ns#"
   xmlns:cc="http://creativecommons.org/ns#"
   xmlns:dc="http://purl.org/dc/elements/1.1/">
  <title
     id="title21">Matcha Logo</title>
  <sodipodi:namedview
     id="namedview1"
     pagecolor="#505050"
     bordercolor="#ffffff"
     borderopacity="1"
     inkscape:showpageshadow="0"
     inkscape:pageopacity="0"
     inkscape:pagecheckerboard="1"
     inkscape:deskcolor="#505050"
     inkscape:document-units="mm"
     inkscape:zoom="0.30495453"
     inkscape:cx="818.15476"
     inkscape:cy="1096.8848"
     inkscape:window-width="1920"
     inkscape:window-height="1009"
     inkscape:window-x="-8"
     inkscape:window-y="-8"
     inkscape:window-maximized="1"
     inkscape:current-layer="g2" />
  <defs
     id="defs1">
    <inkscape:path-effect
       effect="fillet_chamfer"
       id="path-effect3"
       is_visible="true"
       lpeversion="1"
       nodesatellites_param="F,1,0,1,0,0.15,0,1 @ F,1,0,1,0,0.15,0,1 @ F,1,0,1,0,0.15,0,1 @ F,1,0,1,0,0.15,0,1"
       radius="15"
       unit="px"
       method="auto"
       mode="F"
       chamfer_steps="1"
       flexible="true"
       use_knot_distance="true"
       apply_no_radius="true"
       apply_with_radius="true"
       only_selected="false"
       hide_knots="false" />
    <linearGradient
       id="linearGradient3"
       inkscape:collect="always">
      <stop
         style="stop-color:#a1bd74;stop-opacity:1;"
         offset="0"
         id="stop2" />
      <stop
         style="stop-color:#6d8b41;stop-opacity:1;"
         offset="1"
         id="stop3" />
    </linearGradient>
    <linearGradient
       id="linearGradient18"
       inkscape:collect="always">
      <stop
         style="stop-color:#9bb16d;stop-opacity:1;"
         offset="0"
         id="stop18" />
      <stop
         style="stop-color:#6bbf40;stop-opacity:1;"
         offset="1"
         id="stop19" />
    </linearGradient>
    <clipPath
       clipPathUnits="userSpaceOnUse"
       id="clipPath2">
      <use
         x="0"
         y="0"
         xlink:href="#g1"
         id="use2" />
    </clipPath>
    <inkscape:path-effect
       effect="fill_between_many"
       method="originald"
       linkedpaths="#path23519,0,1|"
       id="path-effect18" />
    <linearGradient
       inkscape:collect="always"
       xlink:href="#linearGradient18"
       id="linearGradient19"
       x1="-1.9497266"
       y1="-1.9617618"
       x2="501.97379"
       y2="501.96176"
       gradientUnits="userSpaceOnUse"
       gradientTransform="matrix(1.1185784,0,0,1.1185784,-29.646019,-29.644606)" />
    <linearGradient
       inkscape:collect="always"
       xlink:href="#linearGradient3"
       id="linearGradient2"
       x1="14.110442"
       y1="13.613862"
       x2="482.82208"
       y2="486.38614"
       gradientUnits="userSpaceOnUse" />
    <filter
       style="color-interpolation-filters:sRGB;"
       inkscape:label="Drop Shadow"
       id="filter48"
       x="-0.21697188"
       y="-0.39166216"
       width="1.4339438"
       height="1.7833243">
      <feFlood
         result="flood"
         in="SourceGraphic"
         flood-opacity="0.30000000000000004"
         flood-color="rgb(0,0,0)"
         id="feFlood47" />
      <feGaussianBlur
         result="blur"
         in="SourceGraphic"
         stdDeviation="32"
         id="feGaussianBlur47" />
      <feOffset
         result="offset"
         in="blur"
         dx="0.000000"
         dy="0.000000"
         id="feOffset47" />
      <feComposite
         result="comp1"
         operator="in"
         in="flood"
         in2="offset"
         id="feComposite47" />
      <feComposite
         result="comp2"
         operator="over"
         in="SourceGraphic"
         in2="comp1"
         id="feComposite48" />
    </filter>
    <filter
       style="color-interpolation-filters:sRGB;"
       inkscape:label="Drop Shadow"
       id="filter2"
       x="-0.16972471"
       y="-0.30637494"
       width="1.3394494"
       height="1.6127499">
      <feFlood
         result="flood"
         in="SourceGraphic"
         flood-opacity="0.29999999999999999"
         flood-color="rgb(0,0,0)"
         id="feFlood1" />
      <feGaussianBlur
         result="blur"
         in="SourceGraphic"
         stdDeviation="28"
         id="feGaussianBlur1" />
      <feOffset
         result="offset"
         in="blur"
         dx="0.000000"
         dy="0.000000"
         id="feOffset1" />
      <feComposite
         result="comp1"
         operator="in"
         in="flood"
         in2="offset"
         id="feComposite1" />
      <feComposite
         result="comp2"
         operator="over"
         in="SourceGraphic"
         in2="comp1"
         id="feComposite2" />
    </filter>
  </defs>
  <g
     inkscape:label="Layer 1"
     inkscape:groupmode="layer"
     id="layer1">
    <g
       id="g2"
       clip-path="url(#clipPath2)"
       transform="matrix(0.99221405,0,0,0.99221405,1.9345461,1.9464877)">
      <g
         inkscape:label="Clip"
         id="g1">
        <path
           style="fill:url(#linearGradient2);fill-rule:evenodd;stroke-width:0.264583"
           id="rect1"
           width="468.71164"
           height="472.77228"
           x="14.110442"
           y="13.613861"
           inkscape:path-effect="#path-effect3"
           sodipodi:type="rect"
           d="m 84.417188,13.613861 327.489052,0 a 70.915842,70.915842 45 0 1 70.91584,70.915842 V 416.07939 a 70.306746,70.306746 135 0 1 -70.30674,70.30675 H 85.026284 A 70.915842,70.915842 45 0 1 14.110442,415.4703 V 83.920607 A 70.306746,70.306746 135 0 1 84.417188,13.613861 Z"
           transform="matrix(1.0751248,0,0,1.0658906,-17.120213,-16.472649)"
           inkscape:label="bg" />
      </g>
      <path
         d="m 241.82478,140.35163 c -24.24175,-0.30641 -48.52178,2.75749 -70.95851,7.32184 -59.83126,12.17161 -107.223354,35.26282 -107.223354,35.26282 l -11.598531,5.66324 12.826022,1.41216 c 0,0 100.954683,11.42222 160.636373,89.9214 31.02633,40.80886 66.96396,52.56673 94.87854,53.75965 25.02679,1.06952 41.6999,-5.58448 45.33442,-7.10511 1.77583,2.26257 5.54012,7.29247 13.12372,14.63842 9.12956,8.84348 20.47752,18.2922 32.1804,18.44148 10.89765,0.139 20.01407,-6.58538 26.47873,-12.92331 6.46464,-6.33793 10.47706,-12.70601 10.47706,-12.70601 l -6.32679,-3.99998 c 0,0 -3.60223,5.69927 -9.38532,11.369 -5.78306,5.66972 -13.53012,10.88484 -21.15454,10.78758 -7.2251,-0.0922 -18.40322,-7.9441 -27.06304,-16.33256 -7.16475,-6.94023 -10.72377,-11.68746 -12.44735,-13.87757 2.57215,-3.37107 14.40778,-19.36955 19.59148,-44.44831 5.76141,-27.87366 1.40328,-64.90142 -37.13406,-98.93562 -25.23354,-22.28498 -56.06565,-33.0689 -88.07577,-36.75014 -8.00254,-0.92031 -16.07891,-1.39683 -24.15948,-1.49898 z m -0.28314,7.52224 c 7.82645,0.10056 15.63239,0.56049 23.35144,1.44246 30.87622,3.52791 60.36929,13.82072 84.22495,34.88881 36.76328,32.46745 40.10419,65.87639 34.74317,91.81303 -4.49634,21.75327 -13.84487,35.31425 -17.23497,39.95839 -1.9223,-2.78517 -15.36699,-22.42293 -36.57945,-47.63967 -22.65999,-26.93755 -51.34783,-56.92401 -77.43442,-69.34243 -29.23557,-13.91747 -75.81962,-17.73308 -115.44003,-18.41352 -28.54164,-0.49018 -40.326531,0.70268 -52.010753,1.44128 17.349043,-7.40877 45.887593,-18.62904 87.197253,-27.03275 22.04116,-4.48387 45.70345,-7.41739 69.18281,-7.1156 z m -119.04211,40.09239 c 4.02682,-0.0374 8.74948,-0.018 14.54755,0.0815 19.60678,0.33673 40.96373,1.56666 60.79252,4.30466 19.82875,2.73833 38.11639,6.99442 51.55111,13.38997 23.72049,11.29205 52.55109,40.78094 74.94914,67.40711 21.05135,25.0252 34.4773,44.67732 36.27534,47.28313 -5.4486,2.09204 -18.80725,6.68304 -39.91703,5.78092 -26.13527,-1.11688 -59.44855,-11.65209 -89.22462,-50.81647 -42.10579,-55.38165 -101.64242,-77.14111 -136.687793,-86.17717 9.814213,-0.51739 15.633373,-1.14177 27.713783,-1.25371 z"
         style="display:inline;fill:#ffffff;stroke-width:1.11858;filter:url(#filter2)"
         id="path21"
         inkscape:label="leaf" />
      <path
         id="path23"
         style="display:inline;fill:url(#linearGradient19);stroke-width:1.11858"
         d="m 241.54164,147.87387 c -23.47934,-0.30178 -47.14167,2.63174 -69.18281,7.1156 -41.30961,8.40371 -69.84824,19.624 -87.197253,27.03275 11.684211,-0.73859 23.469153,-1.93146 52.010753,-1.44128 39.62038,0.68044 86.20448,4.49607 115.44003,18.41352 26.08655,12.4184 54.77445,42.4049 77.43442,69.34243 21.21243,25.2167 34.65715,44.8545 36.57945,47.63967 3.3901,-4.64413 12.73863,-18.20514 17.23497,-39.95839 5.36102,-25.93662 2.02007,-59.3456 -34.74317,-91.81303 -23.85564,-21.06807 -53.34876,-31.3609 -84.22495,-34.88881 -7.71904,-0.88197 -15.525,-1.34185 -23.35144,-1.44246 z m -119.04211,40.09239 c -12.0804,0.11195 -17.89957,0.73633 -27.713783,1.25371 35.045343,9.03605 94.582033,30.79557 136.687793,86.17717 29.77603,39.16434 63.08938,49.69959 89.22462,50.81647 21.10976,0.90212 34.46844,-3.68888 39.91703,-5.78091 -1.79803,-2.60582 -15.22402,-22.25797 -36.27534,-47.28314 -22.39803,-26.62615 -51.22867,-56.11507 -74.94914,-67.40711 -13.43471,-6.39555 -31.72238,-10.65164 -51.55111,-13.38996 -19.82877,-2.73799 -41.18576,-3.96794 -60.79252,-4.30466 -5.79807,-0.0996 -10.52073,-0.1189 -14.54755,-0.0815 z"
         inkscape:label="leafbg" />
    </g>
  </g>
  <metadata
     id="metadata21">
    <rdf:RDF>
      <cc:Work
         rdf:about="">
        <dc:title>Matcha Logo</dc:title>
        <dc:creator>
          <cc:Agent>
            <dc:title>Analog Feelings</dc:title>
          </cc:Agent>
        </dc:creator>
        <dc:rights>
          <cc:Agent>
            <dc:title>Copyright 2024 Analog Feelings</dc:title>
          </cc:Agent>
        </dc:rights>
      </cc:Work>
    </rdf:RDF>
  </metadata>
</svg>
