<?xml version="1.0" encoding="UTF-8" standalone="no"?>
<!-- Created with Inkscape (http://www.inkscape.org/) -->

<svg
   width="500mm"
   height="500mm"
   viewBox="0 0 500 500"
   version="1.1"
   id="svg1"
   inkscape:version="1.3.2 (091e20e, 2023-11-25, custom)"
   sodipodi:docname="matcha.svg"
   xmlns:inkscape="http://www.inkscape.org/namespaces/inkscape"
   xmlns:sodipodi="http://sodipodi.sourceforge.net/DTD/sodipodi-0.dtd"
   xmlns:xlink="http://www.w3.org/1999/xlink"
   xmlns="http://www.w3.org/2000/svg"
   xmlns:svg="http://www.w3.org/2000/svg"
   xmlns:rdf="http://www.w3.org/1999/02/22-rdf-syntax-ns#"
   xmlns:cc="http://creativecommons.org/ns#"
   xmlns:dc="http://purl.org/dc/elements/1.1/">
  <title
     id="title21">Matcha Logo</title>
  <sodipodi:namedview
     id="namedview1"
     pagecolor="#505050"
     bordercolor="#ffffff"
     borderopacity="1"
     inkscape:showpageshadow="0"
     inkscape:pageopacity="0"
     inkscape:pagecheckerboard="1"
     inkscape:deskcolor="#505050"
     inkscape:document-units="mm"
     inkscape:zoom="0.43127083"
     inkscape:cx="944.88189"
     inkscape:cy="944.88189"
     inkscape:window-width="1920"
     inkscape:window-height="1009"
     inkscape:window-x="-8"
     inkscape:window-y="-8"
     inkscape:window-maximized="1"
     inkscape:current-layer="g2" />
  <defs
     id="defs1">
    <linearGradient
       id="linearGradient20"
       inkscape:collect="always">
      <stop
         style="stop-color:#a9c27e;stop-opacity:1;"
         offset="0"
         id="stop21" />
      <stop
         style="stop-color:#7ea447;stop-opacity:1;"
         offset="1"
         id="stop20" />
    </linearGradient>
    <linearGradient
       id="linearGradient18"
       inkscape:collect="always">
      <stop
         style="stop-color:#9ac557;stop-opacity:1;"
         offset="0"
         id="stop18" />
      <stop
         style="stop-color:#a5d155;stop-opacity:1;"
         offset="1"
         id="stop19" />
    </linearGradient>
    <clipPath
       clipPathUnits="userSpaceOnUse"
       id="clipPath2">
      <use
         x="0"
         y="0"
         xlink:href="#g1"
         id="use2" />
    </clipPath>
    <filter
       style="color-interpolation-filters:sRGB"
       inkscape:label="Drop Shadow"
       id="filter23378"
       x="-0.84173352"
       y="-0.84639796"
       width="2.6771584"
       height="2.6864204">
      <feFlood
         flood-opacity="0.80000000000000004"
         flood-color="rgb(255,162,0)"
         result="flood"
         id="feFlood23368" />
      <feComposite
         in="flood"
         in2="SourceGraphic"
         operator="in"
         result="composite1"
         id="feComposite23370" />
      <feGaussianBlur
         in="composite1"
         stdDeviation="10"
         result="blur"
         id="feGaussianBlur23372" />
      <feOffset
         dx="-1.38778e-16"
         dy="-6.38378e-16"
         result="offset"
         id="feOffset23374" />
      <feComposite
         in="SourceGraphic"
         in2="offset"
         operator="over"
         result="composite2"
         id="feComposite23376" />
    </filter>
    <inkscape:path-effect
       effect="fill_between_many"
       method="originald"
       linkedpaths="#path23519,0,1|"
       id="path-effect18" />
    <linearGradient
       inkscape:collect="always"
       xlink:href="#linearGradient18"
       id="linearGradient19"
       x1="71.483459"
       y1="151.95334"
       x2="425.44672"
       y2="348.04044"
       gradientUnits="userSpaceOnUse" />
    <linearGradient
       inkscape:collect="always"
       xlink:href="#linearGradient20"
       id="linearGradient21"
       x1="14.110443"
       y1="13.613861"
       x2="482.82208"
       y2="486.38614"
       gradientUnits="userSpaceOnUse" />
  </defs>
  <g
     inkscape:label="Layer 1"
     inkscape:groupmode="layer"
     id="layer1">
    <g
       id="g2"
       clip-path="url(#clipPath2)">
      <g
         inkscape:label="Clip"
         id="g1">
        <ellipse
           style="opacity:1;fill:url(#linearGradient21);stroke-width:2.964;stroke-linecap:round;stroke-linejoin:round;stroke-miterlimit:35.3;fill-opacity:1;stroke-dasharray:none"
           id="path1"
           cx="248.46626"
           cy="250"
           rx="234.35582"
           ry="236.38614"
           inkscape:label="bg" />
      </g>
      <path
         inkscape:original-d="M 0,0"
         inkscape:path-effect="#path-effect18"
         d="m 262.74397,153.31233 c -28.6168,-3.29103 -58.28996,-0.23525 -85.03433,5.20541 -53.48871,10.88133 -95.857279,31.52458 -95.857279,31.52458 l -10.3689,5.06303 11.466597,1.26264 c 0,0 90.252762,10.21137 143.607762,80.38907 27.73732,36.48283 59.86474,46.99385 84.82017,48.06031 22.37378,0.95614 37.27976,-4.9923 40.529,-6.35173 1.58757,2.02272 4.95281,6.51962 11.73249,13.08684 8.16176,7.90601 18.30659,16.3526 28.76889,16.48605 9.74241,0.12427 17.8922,-5.8868 23.67156,-11.55287 5.77934,-5.66607 9.36678,-11.35914 9.36678,-11.35914 l -5.65602,-3.5761 c 0,0 -3.22046,5.09517 -8.39049,10.16386 -5.17002,5.0687 -12.09609,9.73111 -18.91227,9.64416 -6.45918,-0.0824 -16.45235,-7.10202 -24.19417,-14.60124 -6.40522,-6.20452 -9.58691,-10.44887 -11.12778,-12.4068 2.29949,-3.01372 12.88049,-17.31584 17.51468,-39.73607 5.15066,-24.91884 1.25441,-58.02153 -33.19769,-88.44786 C 318.92436,166.24386 291.3608,156.6033 262.74398,153.3123 Z"
         id="path18"
         style="fill:url(#linearGradient19)"
         inkscape:label="leafbg" />
      <path
         style="color:#000000;fill:#ffffff;-inkscape-stroke:none"
         d="m 32.115234,27.572266 c -3.419161,0.07129 -6.860914,0.906132 -9.919922,1.974609 -6.118014,2.136954 -10.771484,5.244141 -10.771484,5.244141 l -1.138672,0.761718 1.369141,-0.03516 c 0,0 10.780788,-0.244602 18.18164,7.15625 3.847433,3.847433 7.795242,4.569252 10.748047,4.294922 2.647335,-0.24595 4.305559,-1.184509 4.666016,-1.396484 0.219164,0.212517 0.687086,0.687614 1.589844,1.351562 1.086793,0.7993 2.41553,1.630423 3.648437,1.478516 1.148074,-0.141455 2.010506,-0.979148 2.59961,-1.738282 0.589103,-0.759133 0.919921,-1.486328 0.919921,-1.486328 l -0.722656,-0.330078 c 0,0 -0.297225,0.65098 -0.824219,1.330078 -0.526993,0.679098 -1.267074,1.338533 -2.070312,1.4375 -0.761169,0.09378 -2.049204,-0.571905 -3.080078,-1.330078 -0.852898,-0.627278 -1.295181,-1.075606 -1.507813,-1.28125 0.222228,-0.391367 1.237841,-2.243355 1.423828,-4.955078 0.206715,-3.013929 -0.78194,-6.845662 -5.322265,-9.873047 -2.972922,-1.982277 -6.369901,-2.674809 -9.789063,-2.603515 z m -0.0078,0.800781 c 3.297716,-0.07118 6.546837,0.588857 9.357422,2.46289 4.331311,2.88802 5.161099,6.353721 4.96875,9.158204 -0.161325,2.352143 -0.950218,3.912251 -1.240235,4.449218 -0.242053,-0.26538 -1.937277,-2.138134 -4.529297,-4.486328 -2.7689,-2.508436 -6.215389,-5.25118 -9.136718,-6.183594 -3.273969,-1.044966 -8.227753,-0.779077 -12.404297,-0.283203 -3.008686,0.357217 -4.230991,0.651467 -5.449219,0.896485 1.718457,-1.027635 4.559105,-2.616367 8.783203,-4.091797 3.005077,-1.04964 6.352674,-1.850698 9.650391,-1.921875 z m -6.435547,5.486328 c 2.124567,0.004 4.108783,0.189724 5.613281,0.669922 2.656359,0.847842 6.110763,3.536185 8.847656,6.015625 2.572333,2.330358 4.265771,4.204828 4.492188,4.453125 -0.543058,0.298049 -1.882241,0.972231 -4.115234,1.179687 -2.76459,0.256844 -6.418936,-0.374013 -10.111329,-4.066406 -5.221346,-5.221346 -11.794311,-6.657077 -15.609374,-7.105469 1.366308,-0.259959 1.982947,-0.43825 4.427734,-0.728515 2.066828,-0.245391 4.330511,-0.421936 6.455078,-0.417969 z"
         id="path23519"
         transform="matrix(8.3458431,1.1365381,-1.1365381,8.3458431,26.0522,-113.30166)"
         inkscape:label="leaf" />
    </g>
  </g>
  <metadata
     id="metadata21">
    <rdf:RDF>
      <cc:Work
         rdf:about="">
        <dc:title>Matcha Logo</dc:title>
        <dc:creator>
          <cc:Agent>
            <dc:title>Analog Feelings</dc:title>
          </cc:Agent>
        </dc:creator>
        <dc:rights>
          <cc:Agent>
            <dc:title>Copyright 2024 Analog Feelings</dc:title>
          </cc:Agent>
        </dc:rights>
      </cc:Work>
    </rdf:RDF>
  </metadata>
</svg>
